<svg version="1.1" viewBox="0 0 96 96" xmlns="http://www.w3.org/2000/svg" xmlns:xlink="http://www.w3.org/1999/xlink" id="Icons_CallCenter" overflow="hidden"><path d=" M 76.8 63.6 C 72.4 60 66.8 57.6 61.2 56 C 57.2 54.8 52.8 54 48 54 C 43.6 54 39.2 54.8 34.8 56 C 29.2 57.6 23.6 60.4 19.2 63.6 C 17.2 65.2 16 67.6 16 70 L 16 86 L 80 86 L 80 70 C 80 67.6 78.8 65.2 76.8 63.6 Z" stroke="none" stroke-width="1" stroke-dasharray="" stroke-dashoffset="1" fill="#AAA9A9" fill-opacity="1"/><path d=" M 32.4 20.4 C 33 20.4 33.5 20.2 33.8 19.8 L 33.8 19.8 C 37.5 16.2 42.5 14 48 14 C 59 14 68 23 68 34 L 68 38.6 L 56.5 42.4 C 56 42.2 55.5 42 55 42 C 53.3 42 52 43.3 52 45 C 52 46.7 53.3 48 55 48 C 56.2 48 57.3 47.3 57.8 46.2 L 73.7 40.9 C 74.5 40.6 75.1 39.9 75.1 39 L 75.1 30 C 75.1 28.9 74.2 28 73.1 28 L 71.3 28 C 68.6 17.7 59.2 10 48 10 C 41.5 10 35.6 12.6 31.2 16.8 C 30.7 17.2 30.4 17.7 30.4 18.4 C 30.4 19.5 31.3 20.4 32.4 20.4 Z" stroke="none" stroke-width="1" stroke-dasharray="" stroke-dashoffset="1" fill="#AAA9A9" fill-opacity="1"/><path d=" M 63.9 35.7 C 64 35.1 64 34.6 64 34 C 64 25.2 56.8 18 48 18 C 39.2 18 32 25.2 32 34 C 32 42.8 39.2 50 48 50 C 48.3 50 48.7 50 49 49.9 L 49 45 L 49 45 C 49 44.1 49.2 43.2 49.6 42.3 C 50.3 40.9 51.5 39.8 53.1 39.3 L 63.9 35.7 Z" stroke="none" stroke-width="1" stroke-dasharray="" stroke-dashoffset="1" fill="#AAA9A9" fill-opacity="1"/></svg>